<svg viewBox="0 0 1024 1024" version="1.1"
    xmlns="http://www.w3.org/2000/svg">
    <path d="M1024 512c0 282.746-229.246 511.992-512.008 511.992S0 794.746 0 512C0 229.238 229.23 0.008 511.992 0.008S1024 229.238 1024 512z" fill="#E6E9ED"></path>
    <path d="M789.316 682.684c0 35.312-28.624 64-64 64-35.344 0-63.998-28.688-63.998-64 0-35.374 28.654-63.998 63.998-63.998 35.376 0 64 28.624 64 63.998zM533.32 213.332c0 35.36-28.64 64-64 64-35.342 0-63.998-28.64-63.998-64 0-35.342 28.656-63.998 63.998-63.998 35.36 0 64 28.656 64 63.998zM810.66 384.002c0 47.124-38.218 85.326-85.344 85.326s-85.326-38.202-85.326-85.326 38.202-85.326 85.326-85.326 85.344 38.2 85.344 85.326zM554.664 810.684c0 47.124-38.204 85.31-85.344 85.31-47.124 0-85.326-38.186-85.326-85.31 0-47.156 38.202-85.376 85.326-85.376 47.14 0 85.344 38.22 85.344 85.376zM426.556 512c0 82.468-66.858 149.31-149.326 149.31-82.468 0-149.326-66.842-149.326-149.31 0-82.466 66.858-149.326 149.326-149.326 82.468 0 149.326 66.86 149.326 149.326z" fill="#CCD1D9"></path>
</svg>